<?xml version="1.0" standalone="no"?>
<!DOCTYPE svg PUBLIC "-//W3C//DTD SVG 20010904//EN"
 "http://www.w3.org/TR/2001/REC-SVG-20010904/DTD/svg10.dtd">
<svg version="1.0" xmlns="http://www.w3.org/2000/svg"
 width="189.000000pt" height="189.000000pt" viewBox="0 0 189.000000 189.000000"
 preserveAspectRatio="xMidYMid meet">
<metadata>
Created by potrace 1.14, written by Peter Selinger 2001-2017
</metadata>
<g transform="translate(0.000000,189.000000) scale(0.100000,-0.100000)"
fill="#000000" stroke="none">
<path d="M503 1320 c-40 -13 -99 -72 -112 -113 -5 -18 -12 -53 -15 -79 -11
-103 -73 -164 -180 -175 -72 -8 -129 -37 -162 -84 -83 -120 3 -290 147 -292
108 -1 182 65 194 171 8 72 20 103 54 141 74 83 217 78 284 -10 29 -40 38 -65
43 -125 11 -136 141 -217 262 -164 75 33 105 80 116 183 15 139 148 217 271
157 61 -30 92 -77 104 -163 12 -82 34 -122 88 -161 83 -58 208 -30 262 58 25
40 34 115 19 160 -23 69 -105 126 -184 126 -38 1 -103 31 -131 61 -31 34 -53
91 -53 136 0 65 -51 141 -110 165 -125 52 -251 -24 -266 -160 -8 -69 -21 -104
-51 -136 -71 -77 -190 -83 -265 -13 -37 35 -57 77 -64 139 -8 70 -31 114 -79
149 -45 32 -120 44 -172 29z"/>
</g>
</svg>
