<svg width="24" height="24" viewBox="0 0 24 24" fill="none" xmlns="http://www.w3.org/2000/svg">
<circle cx="12" cy="12" r="12" fill="#E7EBEE"/>
<path d="M10.7 10.4986L10.7 10.5C10.7 10.8448 10.837 11.1754 11.0808 11.4192C11.3246 11.663 11.6553 11.8 12 11.8C12.3448 11.8 12.6755 11.663 12.9193 11.4192C13.1631 11.1754 13.3 10.8448 13.3 10.5C13.3 10.0491 13.4791 9.61671 13.7979 9.2979C14.1168 8.97909 14.5492 8.8 15 8.8C15.4509 8.8 15.8833 8.97909 16.2021 9.2979C16.5209 9.61671 16.7 10.0491 16.7 10.5C16.7 10.6707 16.7336 10.8398 16.799 10.9975C16.8643 11.1552 16.96 11.2985 17.0808 11.4192C17.2015 11.54 17.3448 11.6357 17.5025 11.7011C17.6602 11.7664 17.8293 11.8 18 11.8C18.3362 11.8 18.6649 11.8997 18.9445 12.0865C19.224 12.2733 19.4419 12.5388 19.5706 12.8495C19.6993 13.1601 19.7329 13.5019 19.6673 13.8317C19.6017 14.1614 19.4398 14.4643 19.2021 14.7021C18.9643 14.9398 18.6614 15.1017 18.3317 15.1673C18.0019 15.2329 17.6601 15.1993 17.3494 15.0706C17.0388 14.9419 16.7733 14.724 16.5865 14.4445C16.3997 14.1649 16.3 13.8362 16.3 13.5C16.3 13.1552 16.1631 12.8246 15.9193 12.5808C15.6755 12.337 15.3448 12.2 15 12.2C14.6552 12.2 14.3246 12.337 14.0808 12.5808C13.837 12.8246 13.7 13.1552 13.7 13.5C13.7 13.9509 13.5209 14.3833 13.2021 14.7021C12.8833 15.0209 12.4509 15.2 12 15.2C11.5492 15.2 11.1168 15.0209 10.798 14.7021C10.4793 14.3835 10.3002 13.9513 10.3 13.5007M10.7 10.4986L10.5 13.5M10.7 10.4986C10.697 10.0497 10.5165 9.6203 10.1981 9.30397C9.87957 8.98764 9.4489 8.8101 9.00001 8.8101C8.55113 8.8101 8.12046 8.98764 7.80198 9.30397C7.48349 9.6203 7.30304 10.0497 7.29999 10.4986H7.29999V10.5C7.29999 10.6707 7.26638 10.8398 7.20105 10.9975C7.13572 11.1552 7.03997 11.2985 6.91925 11.4192C6.79853 11.54 6.65521 11.6357 6.49749 11.7011C6.33977 11.7664 6.17072 11.8 5.99999 11.8C5.66377 11.8 5.3351 11.8997 5.05553 12.0865C4.77596 12.2733 4.55807 12.5388 4.4294 12.8495C4.30074 13.1601 4.26707 13.5019 4.33267 13.8317C4.39826 14.1614 4.56017 14.4643 4.79792 14.7021C5.03567 14.9398 5.33858 15.1017 5.66834 15.1673C5.9981 15.2329 6.33991 15.1993 6.65055 15.0706C6.96119 14.9419 7.22669 14.724 7.41349 14.4445C7.60015 14.1651 7.69985 13.8367 7.69999 13.5007M10.7 10.4986L7.49999 13.5M10.3 13.5007C10.3 13.5005 10.3 13.5003 10.3 13.5H10.5M10.3 13.5007C10.3 13.5009 10.3 13.5012 10.3 13.5014L10.5 13.5M10.3 13.5007C10.2975 13.1577 10.1596 12.8296 9.91617 12.5878C9.67262 12.3459 9.34328 12.2101 9.00001 12.2101C8.65675 12.2101 8.32741 12.3459 8.08386 12.5878C7.84046 12.8296 7.70249 13.1577 7.69999 13.5007M10.5 13.5C10.4974 13.104 10.3381 12.725 10.0571 12.4459C9.77609 12.1668 9.39609 12.0101 9.00001 12.0101C8.60394 12.0101 8.22393 12.1668 7.94292 12.4459C7.6619 12.725 7.50267 13.104 7.49999 13.5M7.69999 13.5007C7.69999 13.5005 7.69999 13.5003 7.69999 13.5H7.49999M7.69999 13.5007C7.69998 13.5009 7.69998 13.5012 7.69998 13.5014L7.49999 13.5" fill="#050E15" stroke="#050E15" stroke-width="0.4"/>
</svg>
