<svg width="32" height="33" viewBox="0 0 32 33" fill="none" xmlns="http://www.w3.org/2000/svg">
<path fill-rule="evenodd" clip-rule="evenodd" d="M16 32.5C24.8366 32.5 32 25.3366 32 16.5C32 7.66344 24.8366 0.5 16 0.5C7.16344 0.5 0 7.66344 0 16.5C0 25.3366 7.16344 32.5 16 32.5Z" fill="#8BB5CC"/>
<path d="M7.8731 19.7008H6.3999V13.3008H7.74861L10.529 17.2871V13.3008H12.0022V19.7008H10.6535L7.8731 15.7145V19.7008Z" fill="#081824"/>
<path d="M15.7145 19.7008H14.2413V13.3008H19.0551V14.4345H15.7145V16.0345H18.5571V17.1134H15.7145V19.7008Z" fill="#081824"/>
<path d="M23.5665 19.7008H22.0933V14.4345H20.0495V13.3008H25.5999V14.4345H23.5665V19.7008Z" fill="#081824"/>
</svg>
