<svg width="64" height="64" viewBox="0 0 64 64" fill="none" xmlns="http://www.w3.org/2000/svg">
<circle cx="32" cy="32" r="24" stroke="#F37272" stroke-width="3" stroke-linecap="round" stroke-linejoin="round"/>
<path d="M24.4533 41.5466C23.9466 41.5466 23.44 41.36 23.04 40.96C22.2666 40.1866 22.2666 38.9066 23.04 38.1333L38.1333 23.04C38.9066 22.2666 40.1866 22.2666 40.96 23.04C41.7333 23.8133 41.7333 25.0933 40.96 25.8666L25.8666 40.96C25.4933 41.36 24.96 41.5466 24.4533 41.5466Z" fill="#F37272" stroke="#F37272"/>
<path d="M39.5466 41.5466C39.04 41.5466 38.5333 41.36 38.1333 40.96L23.04 25.8666C22.2666 25.0933 22.2666 23.8133 23.04 23.04C23.8133 22.2666 25.0933 22.2666 25.8666 23.04L40.96 38.1333C41.7333 38.9066 41.7333 40.1866 40.96 40.96C40.56 41.36 40.0533 41.5466 39.5466 41.5466Z" fill="#F37272" stroke="#F37272"/>
</svg>
