<svg width="82" height="32" viewBox="0 0 82 32" fill="none" xmlns="http://www.w3.org/2000/svg">
<path d="M73.3936 16.0002C72.3226 16.0002 71.2622 15.7933 70.2728 15.3912C69.2834 14.9892 68.3844 14.3998 67.6271 13.6569C66.8699 12.914 66.2692 12.0321 65.8594 11.0614C65.4496 10.0908 65.2387 9.05048 65.2388 7.99989C65.2388 5.87818 64.3796 3.84334 62.8503 2.34306C61.321 0.842785 59.2468 0 57.084 0C54.9212 0 52.847 0.842785 51.3177 2.34306C49.7883 3.84334 48.9292 5.87818 48.9292 7.99989C48.9292 10.1216 48.07 12.1564 46.5407 13.6567C45.0114 15.157 42.9372 15.9998 40.7744 15.9998C38.6116 15.9998 36.5374 15.157 35.0081 13.6567C33.4787 12.1564 32.6196 10.1216 32.6196 7.99989C32.605 5.88753 31.7393 3.86658 30.2116 2.37796C28.6838 0.889346 26.6179 0.0538831 24.4646 0.0538831C22.3113 0.0538831 20.2454 0.889346 18.7176 2.37796C17.1898 3.86658 16.3242 5.88753 16.3096 7.99989C16.3097 9.05048 16.0988 10.0908 15.689 11.0614C15.2792 12.0321 14.6785 12.914 13.9212 13.6569C13.164 14.3998 12.265 14.9892 11.2756 15.3912C10.2862 15.7933 9.22573 16.0002 8.1548 16.0002C6.54193 16.0002 4.96529 16.4693 3.62424 17.3484C2.28319 18.2274 1.23797 19.4769 0.62075 20.9387C0.00353252 22.4005 -0.157959 24.009 0.156696 25.5608C0.471351 27.1127 1.24802 28.5381 2.38849 29.6569C3.52896 30.7757 4.98201 31.5376 6.56388 31.8463C8.14576 32.1549 9.78542 31.9966 11.2755 31.3911C12.7656 30.7856 14.0392 29.7602 14.9353 28.4446C15.8313 27.129 16.3096 25.5823 16.3096 24.0001C16.3242 21.8878 17.1898 19.8668 18.7176 18.3782C20.2454 16.8896 22.3113 16.0541 24.4646 16.0541C26.6179 16.0541 28.6838 16.8896 30.2116 18.3782C31.7393 19.8668 32.605 21.8878 32.6196 24.0001C32.6196 26.1218 33.4787 28.1567 35.0081 29.6569C36.5374 31.1572 38.6116 32 40.7744 32C42.9372 32 45.0114 31.1572 46.5407 29.6569C48.07 28.1567 48.9292 26.1218 48.9292 24.0001C48.9292 21.8784 49.7883 19.8436 51.3177 18.3433C52.847 16.843 54.9212 16.0002 57.084 16.0002C59.2468 16.0002 61.321 16.843 62.8503 18.3433C64.3796 19.8436 65.2388 21.8784 65.2388 24.0001C65.2388 25.5823 65.717 27.129 66.6131 28.4446C67.5092 29.7602 68.7828 30.7856 70.2729 31.3911C71.763 31.9966 73.4026 32.1549 74.9845 31.8463C76.5664 31.5376 78.0194 30.7757 79.1599 29.6569C80.3004 28.5381 81.077 27.1127 81.3917 25.5608C81.7063 24.009 81.5449 22.4005 80.9276 20.9387C80.3104 19.4769 79.2652 18.2274 77.9241 17.3484C76.5831 16.4693 75.0064 16.0002 73.3936 16.0002Z" fill="white"/>
</svg>
