<svg width="165" height="32" viewBox="0 0 165 32" fill="none" xmlns="http://www.w3.org/2000/svg">
<path d="M82.4791 7.79965C81.2395 7.78655 80.0118 8.04044 78.8805 8.54383C77.8159 9.01543 76.8827 9.73709 76.1613 10.6466C75.5695 9.73359 74.7357 9.00036 73.7516 8.5276C72.7048 8.03169 71.5569 7.78257 70.3973 7.79965C69.3321 7.78758 68.2751 7.9855 67.2874 8.38194C66.3695 8.7516 65.5503 9.32744 64.894 10.0643V8.0586H60.0416V25.4633H65.1213V16.7288C65.1213 15.2193 65.4687 14.0815 66.1635 13.3155C66.8582 12.5495 67.7917 12.1667 68.964 12.1671C71.1785 12.1671 72.2858 13.5367 72.2858 16.2757V25.4633H77.3655V16.7288C77.3655 15.2193 77.7129 14.0815 78.4077 13.3155C79.1024 12.5495 80.0468 12.1667 81.2408 12.1671C82.3044 12.1671 83.1243 12.5069 83.7003 13.1863C84.2763 13.8657 84.564 14.8954 84.5634 16.2757V25.4633H89.6431V15.4994C89.6431 12.9328 88.9972 11.0078 87.7054 9.72456C86.4137 8.44128 84.6715 7.79965 82.4791 7.79965Z" fill="white"/>
<path d="M103.545 19.8666L98.628 8.05859H93.385L100.973 25.5928L100.907 25.7547C100.56 26.5311 100.169 27.0866 99.7352 27.4215C99.2439 27.7739 98.6472 27.951 98.0419 27.9239C97.5234 27.9204 97.01 27.8216 96.5276 27.6328C96.0314 27.4469 95.5734 27.1728 95.176 26.824L93.3198 30.4149C93.9571 30.9504 94.7005 31.3471 95.5017 31.5795C96.3755 31.8572 97.2872 31.999 98.2046 32C99.8761 32 101.304 31.5902 102.487 30.7706C103.67 29.951 104.664 28.5384 105.467 26.5326L113.38 8.05971H108.495L103.545 19.8666Z" fill="white"/>
<path d="M123.038 10.3549V8.05827H118.186V25.463H123.266V17.2458C123.266 15.6282 123.679 14.4151 124.504 13.6065C125.329 12.7979 126.468 12.3934 127.923 12.3931C128.118 12.3931 128.498 12.4146 129.063 12.4577V7.79954C127.842 7.77614 126.63 7.99618 125.497 8.44666C124.513 8.8409 123.661 9.50219 123.038 10.3549Z" fill="white"/>
<path d="M139.455 8.05859H134.374V25.4635H139.455V8.05859Z" fill="white"/>
<path d="M139.194 0.779448C138.56 0.244728 137.746 -0.0325617 136.914 0.00305008C136.078 -0.0316609 135.26 0.25839 134.635 0.811837C134.357 1.06827 134.136 1.3787 133.985 1.72381C133.834 2.06892 133.756 2.44129 133.756 2.81769C133.756 3.1941 133.834 3.56652 133.985 3.91163C134.136 4.25674 134.357 4.56718 134.635 4.82361C135.26 5.37724 136.078 5.66732 136.914 5.63239C137.754 5.66694 138.573 5.37039 139.194 4.80738C139.481 4.54153 139.708 4.21795 139.86 3.85817C140.011 3.49839 140.084 3.11068 140.073 2.7208C140.08 2.35276 140.005 1.98771 139.853 1.65201C139.701 1.31631 139.476 1.01832 139.194 0.779448Z" fill="white"/>
<path d="M159.492 8.05863V9.90249C158.232 8.50062 156.485 7.79969 154.249 7.79969C152.686 7.77831 151.144 8.15709 149.771 8.89959C148.443 9.62567 147.352 10.7148 146.628 12.0377C145.879 13.501 145.489 15.1193 145.489 16.761C145.489 18.4026 145.879 20.021 146.628 21.4842C147.352 22.8073 148.443 23.8964 149.771 24.6224C151.144 25.3651 152.686 25.7439 154.249 25.7223C156.637 25.7223 158.46 24.9674 159.719 23.4576V25.4633H164.571V8.05863H159.492ZM158.319 20.2711C157.466 21.1105 156.313 21.5813 155.112 21.5813C153.91 21.5813 152.758 21.1105 151.904 20.2711C151.058 19.3977 150.634 18.2277 150.634 16.761C150.634 15.2942 151.057 14.1242 151.904 13.2509C152.758 12.4115 153.91 11.9406 155.112 11.9406C156.313 11.9406 157.466 12.4115 158.319 13.2509C159.166 14.1242 159.59 15.2942 159.59 16.761C159.59 18.2277 159.166 19.3977 158.319 20.2711Z" fill="white"/>
<path d="M44.9152 15.5476C44.2598 15.5476 43.6108 15.4194 43.0053 15.1702C42.3998 14.921 41.8497 14.5558 41.3863 14.0954C40.9228 13.635 40.5552 13.0884 40.3045 12.4869C40.0537 11.8854 39.9246 11.2407 39.9246 10.5896C39.9246 9.27471 39.3989 8.01366 38.4629 7.0839C37.527 6.15413 36.2577 5.63184 34.9341 5.63184C33.6105 5.63184 32.3411 6.15413 31.4052 7.0839C30.4693 8.01366 29.9435 9.27471 29.9435 10.5896C29.9435 11.9045 29.4177 13.1655 28.4818 14.0953C27.5459 15.025 26.2766 15.5473 24.953 15.5473C23.6294 15.5473 22.36 15.025 21.4241 14.0953C20.4882 13.1655 19.9624 11.9045 19.9624 10.5896C19.9535 9.2805 19.4237 8.02806 18.4888 7.10553C17.5538 6.18299 16.2895 5.66523 14.9718 5.66523C13.654 5.66523 12.3897 6.18299 11.4548 7.10553C10.5198 8.02806 9.99005 9.2805 9.9811 10.5896C9.98113 11.2407 9.85207 11.8854 9.60129 12.4869C9.3505 13.0884 8.9829 13.635 8.51948 14.0954C8.05607 14.5558 7.50591 14.921 6.90041 15.1702C6.29491 15.4194 5.64594 15.5476 4.99055 15.5476C4.00351 15.5476 3.03864 15.8383 2.21795 16.3831C1.39726 16.9279 0.757608 17.7022 0.379885 18.6081C0.00216182 19.514 -0.096667 20.5109 0.0958944 21.4726C0.288456 22.4343 0.76376 23.3177 1.4617 24.0111C2.15964 24.7044 3.04888 25.1766 4.01695 25.3679C4.98502 25.5591 5.98845 25.461 6.90035 25.0858C7.81226 24.7105 8.59168 24.0751 9.14005 23.2598C9.68841 22.4445 9.9811 21.4859 9.9811 20.5054C9.99005 19.1963 10.5198 17.9438 11.4548 17.0213C12.3897 16.0988 13.654 15.581 14.9718 15.581C16.2895 15.581 17.5538 16.0988 18.4888 17.0213C19.4237 17.9438 19.9535 19.1963 19.9624 20.5054C19.9624 21.8203 20.4882 23.0813 21.4241 24.0111C22.36 24.9408 23.6294 25.4631 24.953 25.4631C26.2766 25.4631 27.5459 24.9408 28.4818 24.0111C29.4177 23.0813 29.9435 21.8203 29.9435 20.5054C29.9435 19.1905 30.4693 17.9294 31.4052 16.9997C32.3411 16.0699 33.6105 15.5476 34.9341 15.5476C36.2577 15.5476 37.527 16.0699 38.4629 16.9997C39.3989 17.9294 39.9246 19.1905 39.9246 20.5054C39.9246 21.4859 40.2173 22.4445 40.7657 23.2598C41.3141 24.0751 42.0935 24.7105 43.0054 25.0858C43.9173 25.461 44.9207 25.5591 45.8888 25.3679C46.8569 25.1766 47.7461 24.7044 48.444 24.0111C49.142 23.3177 49.6173 22.4343 49.8099 21.4726C50.0024 20.5109 49.9036 19.514 49.5259 18.6081C49.1481 17.7022 48.5085 16.9279 47.6878 16.3831C46.8671 15.8383 45.9022 15.5476 44.9152 15.5476Z" fill="white"/>
</svg>
